<mxfile host="app.diagrams.net" modified="2022-05-07T12:01:30.260Z" agent="5.0 (Macintosh)" etag="1rLJSlyguzO6m7R7TOcz" version="18.0.1" type="github">
  <diagram name="Page-1" id="0783ab3e-0a74-02c8-0abd-f7b4e66b4bec">
    <mxGraphModel dx="2961" dy="853" grid="1" gridSize="10" guides="1" tooltips="1" connect="1" arrows="1" fold="1" page="1" pageScale="1" pageWidth="850" pageHeight="1100" background="none" math="0" shadow="0">
      <root>
        <mxCell id="0" />
        <mxCell id="1" parent="0" />
        <mxCell id="s9uEeOPg26SiI027MZls-5" style="edgeStyle=orthogonalEdgeStyle;rounded=0;orthogonalLoop=1;jettySize=auto;html=1;exitX=0.5;exitY=1;exitDx=0;exitDy=0;entryX=0.5;entryY=0;entryDx=0;entryDy=0;" edge="1" parent="1" source="s9uEeOPg26SiI027MZls-2" target="s9uEeOPg26SiI027MZls-7">
          <mxGeometry relative="1" as="geometry">
            <mxPoint x="230" y="250" as="targetPoint" />
          </mxGeometry>
        </mxCell>
        <mxCell id="s9uEeOPg26SiI027MZls-2" value="&lt;div&gt;Responsible&lt;br&gt;&lt;/div&gt;&lt;div&gt;Login&lt;br&gt;&lt;/div&gt;" style="rounded=1;whiteSpace=wrap;html=1;" vertex="1" parent="1">
          <mxGeometry x="170" y="90" width="120" height="60" as="geometry" />
        </mxCell>
        <mxCell id="s9uEeOPg26SiI027MZls-8" style="edgeStyle=orthogonalEdgeStyle;rounded=0;orthogonalLoop=1;jettySize=auto;html=1;exitX=1;exitY=0.5;exitDx=0;exitDy=0;entryX=0;entryY=0.5;entryDx=0;entryDy=0;" edge="1" parent="1" source="s9uEeOPg26SiI027MZls-7" target="s9uEeOPg26SiI027MZls-10">
          <mxGeometry relative="1" as="geometry">
            <mxPoint x="390" y="295" as="targetPoint" />
          </mxGeometry>
        </mxCell>
        <mxCell id="s9uEeOPg26SiI027MZls-12" style="edgeStyle=orthogonalEdgeStyle;rounded=0;orthogonalLoop=1;jettySize=auto;html=1;exitX=0.5;exitY=1;exitDx=0;exitDy=0;entryX=0.5;entryY=0;entryDx=0;entryDy=0;" edge="1" parent="1" source="s9uEeOPg26SiI027MZls-7" target="s9uEeOPg26SiI027MZls-13">
          <mxGeometry relative="1" as="geometry">
            <mxPoint x="230" y="410" as="targetPoint" />
          </mxGeometry>
        </mxCell>
        <mxCell id="s9uEeOPg26SiI027MZls-7" value="Correct Login" style="rhombus;whiteSpace=wrap;html=1;" vertex="1" parent="1">
          <mxGeometry x="180" y="250" width="100" height="90" as="geometry" />
        </mxCell>
        <mxCell id="s9uEeOPg26SiI027MZls-9" value="NO" style="text;html=1;align=center;verticalAlign=middle;resizable=0;points=[];autosize=1;strokeColor=none;fillColor=none;" vertex="1" parent="1">
          <mxGeometry x="310" y="280" width="30" height="20" as="geometry" />
        </mxCell>
        <mxCell id="s9uEeOPg26SiI027MZls-11" style="edgeStyle=orthogonalEdgeStyle;rounded=0;orthogonalLoop=1;jettySize=auto;html=1;exitX=0.5;exitY=0;exitDx=0;exitDy=0;entryX=1;entryY=0.5;entryDx=0;entryDy=0;" edge="1" parent="1" source="s9uEeOPg26SiI027MZls-10" target="s9uEeOPg26SiI027MZls-2">
          <mxGeometry relative="1" as="geometry" />
        </mxCell>
        <mxCell id="s9uEeOPg26SiI027MZls-10" value="Incorrect Login" style="rounded=1;whiteSpace=wrap;html=1;" vertex="1" parent="1">
          <mxGeometry x="400" y="265" width="120" height="60" as="geometry" />
        </mxCell>
        <mxCell id="s9uEeOPg26SiI027MZls-20" style="edgeStyle=orthogonalEdgeStyle;rounded=0;orthogonalLoop=1;jettySize=auto;html=1;exitX=0;exitY=0.5;exitDx=0;exitDy=0;entryX=0.5;entryY=0;entryDx=0;entryDy=0;" edge="1" parent="1" source="s9uEeOPg26SiI027MZls-13" target="s9uEeOPg26SiI027MZls-16">
          <mxGeometry relative="1" as="geometry" />
        </mxCell>
        <mxCell id="s9uEeOPg26SiI027MZls-21" style="edgeStyle=orthogonalEdgeStyle;rounded=0;orthogonalLoop=1;jettySize=auto;html=1;exitX=0.5;exitY=1;exitDx=0;exitDy=0;entryX=0.5;entryY=0;entryDx=0;entryDy=0;" edge="1" parent="1" source="s9uEeOPg26SiI027MZls-13" target="s9uEeOPg26SiI027MZls-17">
          <mxGeometry relative="1" as="geometry" />
        </mxCell>
        <mxCell id="s9uEeOPg26SiI027MZls-22" style="edgeStyle=orthogonalEdgeStyle;rounded=0;orthogonalLoop=1;jettySize=auto;html=1;exitX=1;exitY=0.75;exitDx=0;exitDy=0;entryX=0.5;entryY=0;entryDx=0;entryDy=0;" edge="1" parent="1" source="s9uEeOPg26SiI027MZls-13" target="s9uEeOPg26SiI027MZls-18">
          <mxGeometry relative="1" as="geometry">
            <Array as="points">
              <mxPoint x="290" y="500" />
              <mxPoint x="580" y="500" />
            </Array>
          </mxGeometry>
        </mxCell>
        <mxCell id="s9uEeOPg26SiI027MZls-23" style="edgeStyle=orthogonalEdgeStyle;rounded=0;orthogonalLoop=1;jettySize=auto;html=1;exitX=1;exitY=0.5;exitDx=0;exitDy=0;entryX=0.5;entryY=0;entryDx=0;entryDy=0;" edge="1" parent="1" source="s9uEeOPg26SiI027MZls-13" target="s9uEeOPg26SiI027MZls-19">
          <mxGeometry relative="1" as="geometry" />
        </mxCell>
        <mxCell id="s9uEeOPg26SiI027MZls-13" value="Succesful login" style="rounded=1;whiteSpace=wrap;html=1;" vertex="1" parent="1">
          <mxGeometry x="170" y="430" width="120" height="60" as="geometry" />
        </mxCell>
        <mxCell id="s9uEeOPg26SiI027MZls-14" value="YES" style="text;html=1;align=center;verticalAlign=middle;resizable=0;points=[];autosize=1;strokeColor=none;fillColor=none;rotation=270;" vertex="1" parent="1">
          <mxGeometry x="200" y="380" width="40" height="20" as="geometry" />
        </mxCell>
        <mxCell id="s9uEeOPg26SiI027MZls-25" style="edgeStyle=orthogonalEdgeStyle;rounded=0;orthogonalLoop=1;jettySize=auto;html=1;exitX=0.5;exitY=1;exitDx=0;exitDy=0;entryX=0.558;entryY=-0.033;entryDx=0;entryDy=0;entryPerimeter=0;" edge="1" parent="1" source="s9uEeOPg26SiI027MZls-16" target="s9uEeOPg26SiI027MZls-24">
          <mxGeometry relative="1" as="geometry" />
        </mxCell>
        <mxCell id="s9uEeOPg26SiI027MZls-27" style="edgeStyle=orthogonalEdgeStyle;rounded=0;orthogonalLoop=1;jettySize=auto;html=1;exitX=0;exitY=0.5;exitDx=0;exitDy=0;entryX=0.5;entryY=0;entryDx=0;entryDy=0;" edge="1" parent="1" source="s9uEeOPg26SiI027MZls-16" target="s9uEeOPg26SiI027MZls-26">
          <mxGeometry relative="1" as="geometry" />
        </mxCell>
        <mxCell id="s9uEeOPg26SiI027MZls-30" style="edgeStyle=orthogonalEdgeStyle;rounded=0;orthogonalLoop=1;jettySize=auto;html=1;exitX=0;exitY=0;exitDx=0;exitDy=0;entryX=0.5;entryY=0;entryDx=0;entryDy=0;" edge="1" parent="1" source="s9uEeOPg26SiI027MZls-16" target="s9uEeOPg26SiI027MZls-29">
          <mxGeometry relative="1" as="geometry" />
        </mxCell>
        <mxCell id="s9uEeOPg26SiI027MZls-16" value="Create Volunteer" style="rounded=1;whiteSpace=wrap;html=1;" vertex="1" parent="1">
          <mxGeometry x="-40" y="560" width="120" height="60" as="geometry" />
        </mxCell>
        <mxCell id="s9uEeOPg26SiI027MZls-32" style="edgeStyle=orthogonalEdgeStyle;rounded=0;orthogonalLoop=1;jettySize=auto;html=1;exitX=0.5;exitY=1;exitDx=0;exitDy=0;entryX=0.5;entryY=0;entryDx=0;entryDy=0;" edge="1" parent="1" source="s9uEeOPg26SiI027MZls-17" target="s9uEeOPg26SiI027MZls-31">
          <mxGeometry relative="1" as="geometry" />
        </mxCell>
        <mxCell id="s9uEeOPg26SiI027MZls-47" style="edgeStyle=orthogonalEdgeStyle;rounded=0;orthogonalLoop=1;jettySize=auto;html=1;exitX=1;exitY=0.5;exitDx=0;exitDy=0;entryX=0.5;entryY=0;entryDx=0;entryDy=0;" edge="1" parent="1" source="s9uEeOPg26SiI027MZls-17" target="s9uEeOPg26SiI027MZls-46">
          <mxGeometry relative="1" as="geometry" />
        </mxCell>
        <mxCell id="s9uEeOPg26SiI027MZls-49" style="edgeStyle=orthogonalEdgeStyle;rounded=0;orthogonalLoop=1;jettySize=auto;html=1;exitX=1;exitY=0.25;exitDx=0;exitDy=0;entryX=0.5;entryY=0;entryDx=0;entryDy=0;" edge="1" parent="1" source="s9uEeOPg26SiI027MZls-17" target="s9uEeOPg26SiI027MZls-48">
          <mxGeometry relative="1" as="geometry">
            <Array as="points">
              <mxPoint x="480" y="575" />
              <mxPoint x="480" y="650" />
              <mxPoint x="510" y="650" />
            </Array>
          </mxGeometry>
        </mxCell>
        <mxCell id="s9uEeOPg26SiI027MZls-17" value="Edit Volunteer" style="rounded=1;whiteSpace=wrap;html=1;" vertex="1" parent="1">
          <mxGeometry x="160" y="560" width="120" height="60" as="geometry" />
        </mxCell>
        <mxCell id="s9uEeOPg26SiI027MZls-66" style="edgeStyle=orthogonalEdgeStyle;rounded=0;orthogonalLoop=1;jettySize=auto;html=1;exitX=0.75;exitY=1;exitDx=0;exitDy=0;entryX=0.5;entryY=0;entryDx=0;entryDy=0;" edge="1" parent="1" source="s9uEeOPg26SiI027MZls-18" target="s9uEeOPg26SiI027MZls-65">
          <mxGeometry relative="1" as="geometry">
            <Array as="points">
              <mxPoint x="650" y="620" />
              <mxPoint x="650" y="645" />
              <mxPoint x="800" y="645" />
            </Array>
          </mxGeometry>
        </mxCell>
        <mxCell id="s9uEeOPg26SiI027MZls-79" style="edgeStyle=orthogonalEdgeStyle;rounded=0;orthogonalLoop=1;jettySize=auto;html=1;exitX=1;exitY=0.5;exitDx=0;exitDy=0;entryX=0.5;entryY=0;entryDx=0;entryDy=0;" edge="1" parent="1" source="s9uEeOPg26SiI027MZls-18" target="s9uEeOPg26SiI027MZls-80">
          <mxGeometry relative="1" as="geometry">
            <mxPoint x="890" y="660" as="targetPoint" />
            <Array as="points">
              <mxPoint x="670" y="590" />
              <mxPoint x="670" y="630" />
              <mxPoint x="950" y="630" />
            </Array>
          </mxGeometry>
        </mxCell>
        <mxCell id="s9uEeOPg26SiI027MZls-82" style="edgeStyle=orthogonalEdgeStyle;rounded=0;orthogonalLoop=1;jettySize=auto;html=1;exitX=0.5;exitY=1;exitDx=0;exitDy=0;entryX=0.5;entryY=0;entryDx=0;entryDy=0;" edge="1" parent="1" source="s9uEeOPg26SiI027MZls-18" target="s9uEeOPg26SiI027MZls-81">
          <mxGeometry relative="1" as="geometry">
            <Array as="points">
              <mxPoint x="580" y="660" />
              <mxPoint x="660" y="660" />
            </Array>
          </mxGeometry>
        </mxCell>
        <mxCell id="s9uEeOPg26SiI027MZls-18" value="Create Shift" style="rounded=1;whiteSpace=wrap;html=1;" vertex="1" parent="1">
          <mxGeometry x="520" y="560" width="120" height="60" as="geometry" />
        </mxCell>
        <mxCell id="s9uEeOPg26SiI027MZls-19" value="Edit Shift" style="rounded=1;whiteSpace=wrap;html=1;" vertex="1" parent="1">
          <mxGeometry x="680" y="560" width="120" height="60" as="geometry" />
        </mxCell>
        <mxCell id="s9uEeOPg26SiI027MZls-24" value="Submit" style="rounded=1;whiteSpace=wrap;html=1;" vertex="1" parent="1">
          <mxGeometry y="680" width="120" height="60" as="geometry" />
        </mxCell>
        <mxCell id="s9uEeOPg26SiI027MZls-26" value="Go back" style="rounded=1;whiteSpace=wrap;html=1;" vertex="1" parent="1">
          <mxGeometry x="-160" y="680" width="120" height="60" as="geometry" />
        </mxCell>
        <mxCell id="s9uEeOPg26SiI027MZls-56" style="edgeStyle=orthogonalEdgeStyle;rounded=0;orthogonalLoop=1;jettySize=auto;html=1;" edge="1" parent="1" source="s9uEeOPg26SiI027MZls-29" target="s9uEeOPg26SiI027MZls-51">
          <mxGeometry relative="1" as="geometry">
            <Array as="points">
              <mxPoint x="-260" y="1070" />
              <mxPoint x="540" y="1070" />
              <mxPoint x="540" y="860" />
            </Array>
          </mxGeometry>
        </mxCell>
        <mxCell id="s9uEeOPg26SiI027MZls-29" value="Log Out" style="rounded=1;whiteSpace=wrap;html=1;" vertex="1" parent="1">
          <mxGeometry x="-320" y="680" width="120" height="60" as="geometry" />
        </mxCell>
        <mxCell id="s9uEeOPg26SiI027MZls-36" style="edgeStyle=orthogonalEdgeStyle;rounded=0;orthogonalLoop=1;jettySize=auto;html=1;exitX=0.5;exitY=1;exitDx=0;exitDy=0;entryX=0.5;entryY=0;entryDx=0;entryDy=0;" edge="1" parent="1" source="s9uEeOPg26SiI027MZls-31" target="s9uEeOPg26SiI027MZls-35">
          <mxGeometry relative="1" as="geometry" />
        </mxCell>
        <mxCell id="s9uEeOPg26SiI027MZls-31" value="Search" style="rounded=1;whiteSpace=wrap;html=1;" vertex="1" parent="1">
          <mxGeometry x="160" y="680" width="120" height="60" as="geometry" />
        </mxCell>
        <mxCell id="s9uEeOPg26SiI027MZls-38" style="edgeStyle=orthogonalEdgeStyle;rounded=0;orthogonalLoop=1;jettySize=auto;html=1;exitX=1;exitY=0.5;exitDx=0;exitDy=0;entryX=0;entryY=0.5;entryDx=0;entryDy=0;" edge="1" parent="1" source="s9uEeOPg26SiI027MZls-35" target="s9uEeOPg26SiI027MZls-37">
          <mxGeometry relative="1" as="geometry">
            <Array as="points">
              <mxPoint x="280" y="845" />
            </Array>
          </mxGeometry>
        </mxCell>
        <mxCell id="s9uEeOPg26SiI027MZls-42" style="edgeStyle=orthogonalEdgeStyle;rounded=0;orthogonalLoop=1;jettySize=auto;html=1;exitX=0;exitY=1;exitDx=0;exitDy=0;entryX=0.5;entryY=0;entryDx=0;entryDy=0;" edge="1" parent="1" source="s9uEeOPg26SiI027MZls-35" target="s9uEeOPg26SiI027MZls-40">
          <mxGeometry relative="1" as="geometry">
            <mxPoint x="120" y="920" as="targetPoint" />
            <Array as="points">
              <mxPoint x="120" y="865" />
            </Array>
          </mxGeometry>
        </mxCell>
        <mxCell id="s9uEeOPg26SiI027MZls-44" style="edgeStyle=orthogonalEdgeStyle;rounded=0;orthogonalLoop=1;jettySize=auto;html=1;exitX=1;exitY=1;exitDx=0;exitDy=0;entryX=0.5;entryY=0;entryDx=0;entryDy=0;" edge="1" parent="1" source="s9uEeOPg26SiI027MZls-35" target="s9uEeOPg26SiI027MZls-41">
          <mxGeometry relative="1" as="geometry" />
        </mxCell>
        <mxCell id="s9uEeOPg26SiI027MZls-35" value="Volunteer Exists" style="rhombus;whiteSpace=wrap;html=1;" vertex="1" parent="1">
          <mxGeometry x="160" y="805" width="120" height="80" as="geometry" />
        </mxCell>
        <mxCell id="s9uEeOPg26SiI027MZls-37" value="Person not found" style="rounded=1;whiteSpace=wrap;html=1;" vertex="1" parent="1">
          <mxGeometry x="360" y="815" width="120" height="60" as="geometry" />
        </mxCell>
        <mxCell id="s9uEeOPg26SiI027MZls-39" value="NO" style="text;html=1;align=center;verticalAlign=middle;resizable=0;points=[];autosize=1;strokeColor=none;fillColor=none;" vertex="1" parent="1">
          <mxGeometry x="300" y="825" width="30" height="20" as="geometry" />
        </mxCell>
        <mxCell id="s9uEeOPg26SiI027MZls-40" value="Save Changes" style="rounded=1;whiteSpace=wrap;html=1;" vertex="1" parent="1">
          <mxGeometry x="60" y="930" width="120" height="60" as="geometry" />
        </mxCell>
        <mxCell id="s9uEeOPg26SiI027MZls-41" value="Delete Volunteer" style="rounded=1;whiteSpace=wrap;html=1;" vertex="1" parent="1">
          <mxGeometry x="280" y="930" width="120" height="60" as="geometry" />
        </mxCell>
        <mxCell id="s9uEeOPg26SiI027MZls-43" value="YES" style="text;html=1;align=center;verticalAlign=middle;resizable=0;points=[];autosize=1;strokeColor=none;fillColor=none;" vertex="1" parent="1">
          <mxGeometry x="120" y="850" width="40" height="20" as="geometry" />
        </mxCell>
        <mxCell id="s9uEeOPg26SiI027MZls-45" value="YES" style="text;html=1;align=center;verticalAlign=middle;resizable=0;points=[];autosize=1;strokeColor=none;fillColor=none;" vertex="1" parent="1">
          <mxGeometry x="270" y="885" width="40" height="20" as="geometry" />
        </mxCell>
        <mxCell id="s9uEeOPg26SiI027MZls-50" style="edgeStyle=orthogonalEdgeStyle;rounded=0;orthogonalLoop=1;jettySize=auto;html=1;exitX=0.5;exitY=1;exitDx=0;exitDy=0;" edge="1" parent="1" source="s9uEeOPg26SiI027MZls-46" target="s9uEeOPg26SiI027MZls-51">
          <mxGeometry relative="1" as="geometry">
            <mxPoint x="620" y="850" as="targetPoint" />
          </mxGeometry>
        </mxCell>
        <mxCell id="s9uEeOPg26SiI027MZls-46" value="Log Out" style="rounded=1;whiteSpace=wrap;html=1;" vertex="1" parent="1">
          <mxGeometry x="320" y="680" width="120" height="60" as="geometry" />
        </mxCell>
        <mxCell id="s9uEeOPg26SiI027MZls-48" value="Go back" style="rounded=1;whiteSpace=wrap;html=1;" vertex="1" parent="1">
          <mxGeometry x="450" y="680" width="120" height="60" as="geometry" />
        </mxCell>
        <mxCell id="s9uEeOPg26SiI027MZls-52" style="edgeStyle=orthogonalEdgeStyle;rounded=0;orthogonalLoop=1;jettySize=auto;html=1;entryX=0.5;entryY=0;entryDx=0;entryDy=0;entryPerimeter=0;" edge="1" parent="1" source="s9uEeOPg26SiI027MZls-51" target="s9uEeOPg26SiI027MZls-55">
          <mxGeometry relative="1" as="geometry">
            <mxPoint x="625" y="950" as="targetPoint" />
          </mxGeometry>
        </mxCell>
        <mxCell id="s9uEeOPg26SiI027MZls-51" value="" style="ellipse;html=1;shape=endState;fillColor=#000000;strokeColor=#ff0000;" vertex="1" parent="1">
          <mxGeometry x="615" y="845" width="30" height="30" as="geometry" />
        </mxCell>
        <mxCell id="s9uEeOPg26SiI027MZls-55" value="&lt;div&gt;Goes back to&lt;/div&gt;&lt;div&gt;Responsible&lt;/div&gt;&lt;div&gt;Login&lt;br&gt;&lt;/div&gt;" style="shape=note;whiteSpace=wrap;html=1;backgroundOutline=1;darkOpacity=0.05;" vertex="1" parent="1">
          <mxGeometry x="590" y="960" width="80" height="100" as="geometry" />
        </mxCell>
        <mxCell id="s9uEeOPg26SiI027MZls-61" value="If chosen" style="text;html=1;align=center;verticalAlign=middle;resizable=0;points=[];autosize=1;strokeColor=none;fillColor=none;rotation=270;" vertex="1" parent="1">
          <mxGeometry x="-300" y="875" width="60" height="20" as="geometry" />
        </mxCell>
        <mxCell id="s9uEeOPg26SiI027MZls-62" value="If chosen" style="text;html=1;align=center;verticalAlign=middle;resizable=0;points=[];autosize=1;strokeColor=none;fillColor=none;rotation=0;" vertex="1" parent="1">
          <mxGeometry x="470" y="770" width="60" height="20" as="geometry" />
        </mxCell>
        <mxCell id="s9uEeOPg26SiI027MZls-68" style="edgeStyle=orthogonalEdgeStyle;rounded=0;orthogonalLoop=1;jettySize=auto;html=1;exitX=0.5;exitY=1;exitDx=0;exitDy=0;entryX=0.5;entryY=0;entryDx=0;entryDy=0;" edge="1" parent="1" source="s9uEeOPg26SiI027MZls-65" target="s9uEeOPg26SiI027MZls-67">
          <mxGeometry relative="1" as="geometry" />
        </mxCell>
        <mxCell id="s9uEeOPg26SiI027MZls-65" value="Search" style="rounded=1;whiteSpace=wrap;html=1;" vertex="1" parent="1">
          <mxGeometry x="740" y="660" width="120" height="60" as="geometry" />
        </mxCell>
        <mxCell id="s9uEeOPg26SiI027MZls-70" style="edgeStyle=orthogonalEdgeStyle;rounded=0;orthogonalLoop=1;jettySize=auto;html=1;entryX=0;entryY=0.5;entryDx=0;entryDy=0;" edge="1" parent="1" source="s9uEeOPg26SiI027MZls-67" target="s9uEeOPg26SiI027MZls-69">
          <mxGeometry relative="1" as="geometry" />
        </mxCell>
        <mxCell id="s9uEeOPg26SiI027MZls-76" style="edgeStyle=orthogonalEdgeStyle;rounded=0;orthogonalLoop=1;jettySize=auto;html=1;exitX=0.5;exitY=1;exitDx=0;exitDy=0;entryX=0;entryY=0.5;entryDx=0;entryDy=0;" edge="1" parent="1" source="s9uEeOPg26SiI027MZls-67" target="s9uEeOPg26SiI027MZls-75">
          <mxGeometry relative="1" as="geometry" />
        </mxCell>
        <mxCell id="s9uEeOPg26SiI027MZls-67" value="Volunteer Exists" style="rhombus;whiteSpace=wrap;html=1;" vertex="1" parent="1">
          <mxGeometry x="670" y="780" width="120" height="80" as="geometry" />
        </mxCell>
        <mxCell id="s9uEeOPg26SiI027MZls-74" style="edgeStyle=orthogonalEdgeStyle;rounded=0;orthogonalLoop=1;jettySize=auto;html=1;exitX=1;exitY=0.5;exitDx=0;exitDy=0;entryX=0;entryY=0.5;entryDx=0;entryDy=0;" edge="1" parent="1" source="s9uEeOPg26SiI027MZls-69" target="s9uEeOPg26SiI027MZls-73">
          <mxGeometry relative="1" as="geometry" />
        </mxCell>
        <mxCell id="s9uEeOPg26SiI027MZls-69" value="Edit Details" style="rounded=1;whiteSpace=wrap;html=1;" vertex="1" parent="1">
          <mxGeometry x="840" y="790" width="120" height="60" as="geometry" />
        </mxCell>
        <mxCell id="s9uEeOPg26SiI027MZls-71" value="YES" style="text;html=1;align=center;verticalAlign=middle;resizable=0;points=[];autosize=1;strokeColor=none;fillColor=none;" vertex="1" parent="1">
          <mxGeometry x="790" y="800" width="40" height="20" as="geometry" />
        </mxCell>
        <mxCell id="s9uEeOPg26SiI027MZls-73" value="Submit" style="rounded=1;whiteSpace=wrap;html=1;" vertex="1" parent="1">
          <mxGeometry x="1040" y="790" width="120" height="60" as="geometry" />
        </mxCell>
        <mxCell id="s9uEeOPg26SiI027MZls-75" value="Person not found" style="rounded=1;whiteSpace=wrap;html=1;" vertex="1" parent="1">
          <mxGeometry x="800" y="895" width="120" height="60" as="geometry" />
        </mxCell>
        <mxCell id="s9uEeOPg26SiI027MZls-77" value="NO" style="text;html=1;align=center;verticalAlign=middle;resizable=0;points=[];autosize=1;strokeColor=none;fillColor=none;rotation=0;" vertex="1" parent="1">
          <mxGeometry x="740" y="905" width="30" height="20" as="geometry" />
        </mxCell>
        <mxCell id="s9uEeOPg26SiI027MZls-80" value="Go back" style="rounded=1;whiteSpace=wrap;html=1;" vertex="1" parent="1">
          <mxGeometry x="890" y="660" width="120" height="60" as="geometry" />
        </mxCell>
        <mxCell id="s9uEeOPg26SiI027MZls-84" style="edgeStyle=orthogonalEdgeStyle;rounded=0;orthogonalLoop=1;jettySize=auto;html=1;exitX=0.5;exitY=1;exitDx=0;exitDy=0;entryX=1;entryY=0.5;entryDx=0;entryDy=0;" edge="1" parent="1" source="s9uEeOPg26SiI027MZls-81" target="s9uEeOPg26SiI027MZls-51">
          <mxGeometry relative="1" as="geometry">
            <Array as="points">
              <mxPoint x="660" y="860" />
            </Array>
          </mxGeometry>
        </mxCell>
        <mxCell id="s9uEeOPg26SiI027MZls-81" value="Log Out" style="rounded=1;whiteSpace=wrap;html=1;" vertex="1" parent="1">
          <mxGeometry x="600" y="680" width="120" height="60" as="geometry" />
        </mxCell>
        <mxCell id="s9uEeOPg26SiI027MZls-83" value="If chosen" style="text;html=1;align=center;verticalAlign=middle;resizable=0;points=[];autosize=1;strokeColor=none;fillColor=none;rotation=0;" vertex="1" parent="1">
          <mxGeometry x="580" y="640" width="60" height="20" as="geometry" />
        </mxCell>
        <mxCell id="s9uEeOPg26SiI027MZls-85" value="&lt;div&gt;&lt;br&gt;&lt;/div&gt;&lt;div&gt;Volunteer has&lt;/div&gt;&lt;div&gt;been created&lt;/div&gt;&lt;div&gt;by Responsible&lt;br&gt;&lt;/div&gt;" style="shape=note;whiteSpace=wrap;html=1;backgroundOutline=1;darkOpacity=0.05;" vertex="1" parent="1">
          <mxGeometry x="-1100" y="120" width="80" height="100" as="geometry" />
        </mxCell>
        <mxCell id="s9uEeOPg26SiI027MZls-92" style="edgeStyle=orthogonalEdgeStyle;rounded=0;orthogonalLoop=1;jettySize=auto;html=1;exitX=0.5;exitY=1;exitDx=0;exitDy=0;entryX=0.5;entryY=0;entryDx=0;entryDy=0;" edge="1" parent="1" source="s9uEeOPg26SiI027MZls-86" target="s9uEeOPg26SiI027MZls-91">
          <mxGeometry relative="1" as="geometry" />
        </mxCell>
        <mxCell id="s9uEeOPg26SiI027MZls-86" value="" style="ellipse;whiteSpace=wrap;html=1;aspect=fixed;fillColor=#030303;" vertex="1" parent="1">
          <mxGeometry x="-780" y="170" width="30" height="30" as="geometry" />
        </mxCell>
        <mxCell id="s9uEeOPg26SiI027MZls-89" value="" style="endArrow=none;dashed=1;html=1;dashPattern=1 3;strokeWidth=2;rounded=0;entryX=0;entryY=0.5;entryDx=0;entryDy=0;exitX=0;exitY=0;exitDx=80;exitDy=65;exitPerimeter=0;" edge="1" parent="1" source="s9uEeOPg26SiI027MZls-85" target="s9uEeOPg26SiI027MZls-86">
          <mxGeometry width="50" height="50" relative="1" as="geometry">
            <mxPoint x="-450" y="210" as="sourcePoint" />
            <mxPoint x="-400" y="160" as="targetPoint" />
            <Array as="points" />
          </mxGeometry>
        </mxCell>
        <mxCell id="s9uEeOPg26SiI027MZls-94" style="edgeStyle=orthogonalEdgeStyle;rounded=0;orthogonalLoop=1;jettySize=auto;html=1;exitX=0.5;exitY=1;exitDx=0;exitDy=0;entryX=0.5;entryY=0;entryDx=0;entryDy=0;" edge="1" parent="1" source="s9uEeOPg26SiI027MZls-91" target="s9uEeOPg26SiI027MZls-93">
          <mxGeometry relative="1" as="geometry" />
        </mxCell>
        <mxCell id="s9uEeOPg26SiI027MZls-91" value="Enters login" style="rounded=1;whiteSpace=wrap;html=1;fillColor=#FFFFFF;" vertex="1" parent="1">
          <mxGeometry x="-825" y="250" width="120" height="60" as="geometry" />
        </mxCell>
        <mxCell id="s9uEeOPg26SiI027MZls-96" style="edgeStyle=orthogonalEdgeStyle;rounded=0;orthogonalLoop=1;jettySize=auto;html=1;exitX=1;exitY=0.5;exitDx=0;exitDy=0;entryX=0;entryY=0.5;entryDx=0;entryDy=0;" edge="1" parent="1" source="s9uEeOPg26SiI027MZls-93" target="s9uEeOPg26SiI027MZls-98">
          <mxGeometry relative="1" as="geometry">
            <mxPoint x="-400" y="415.2352941176471" as="targetPoint" />
          </mxGeometry>
        </mxCell>
        <mxCell id="s9uEeOPg26SiI027MZls-100" style="edgeStyle=orthogonalEdgeStyle;rounded=0;orthogonalLoop=1;jettySize=auto;html=1;exitX=0.5;exitY=1;exitDx=0;exitDy=0;entryX=0.5;entryY=0;entryDx=0;entryDy=0;" edge="1" parent="1" source="s9uEeOPg26SiI027MZls-93" target="s9uEeOPg26SiI027MZls-101">
          <mxGeometry relative="1" as="geometry">
            <mxPoint x="-574.7647058823529" y="560" as="targetPoint" />
          </mxGeometry>
        </mxCell>
        <mxCell id="s9uEeOPg26SiI027MZls-93" value="Correct Login" style="rhombus;whiteSpace=wrap;html=1;fillColor=#FFFFFF;" vertex="1" parent="1">
          <mxGeometry x="-807.5" y="365" width="85" height="90" as="geometry" />
        </mxCell>
        <mxCell id="s9uEeOPg26SiI027MZls-97" value="NO" style="text;html=1;align=center;verticalAlign=middle;resizable=0;points=[];autosize=1;strokeColor=none;fillColor=none;" vertex="1" parent="1">
          <mxGeometry x="-700" y="390" width="30" height="20" as="geometry" />
        </mxCell>
        <mxCell id="s9uEeOPg26SiI027MZls-99" style="edgeStyle=orthogonalEdgeStyle;rounded=0;orthogonalLoop=1;jettySize=auto;html=1;exitX=0.5;exitY=0;exitDx=0;exitDy=0;entryX=1;entryY=0.5;entryDx=0;entryDy=0;" edge="1" parent="1" source="s9uEeOPg26SiI027MZls-98" target="s9uEeOPg26SiI027MZls-91">
          <mxGeometry relative="1" as="geometry" />
        </mxCell>
        <mxCell id="s9uEeOPg26SiI027MZls-98" value="Incorrect Login entered" style="rounded=1;whiteSpace=wrap;html=1;fillColor=#FFFFFF;" vertex="1" parent="1">
          <mxGeometry x="-615" y="380" width="120" height="60" as="geometry" />
        </mxCell>
        <mxCell id="s9uEeOPg26SiI027MZls-107" style="edgeStyle=orthogonalEdgeStyle;rounded=0;orthogonalLoop=1;jettySize=auto;html=1;exitX=0;exitY=0.5;exitDx=0;exitDy=0;entryX=0.5;entryY=0;entryDx=0;entryDy=0;" edge="1" parent="1" source="s9uEeOPg26SiI027MZls-101" target="s9uEeOPg26SiI027MZls-106">
          <mxGeometry relative="1" as="geometry" />
        </mxCell>
        <mxCell id="s9uEeOPg26SiI027MZls-123" style="edgeStyle=orthogonalEdgeStyle;rounded=0;orthogonalLoop=1;jettySize=auto;html=1;exitX=0.5;exitY=1;exitDx=0;exitDy=0;entryX=0.5;entryY=0;entryDx=0;entryDy=0;" edge="1" parent="1" source="s9uEeOPg26SiI027MZls-101" target="s9uEeOPg26SiI027MZls-122">
          <mxGeometry relative="1" as="geometry" />
        </mxCell>
        <mxCell id="s9uEeOPg26SiI027MZls-101" value="Succesful login" style="rounded=1;whiteSpace=wrap;html=1;fillColor=#FFFFFF;" vertex="1" parent="1">
          <mxGeometry x="-735" y="550" width="120" height="60" as="geometry" />
        </mxCell>
        <mxCell id="s9uEeOPg26SiI027MZls-103" value="YES" style="text;html=1;align=center;verticalAlign=middle;resizable=0;points=[];autosize=1;strokeColor=none;fillColor=none;rotation=0;" vertex="1" parent="1">
          <mxGeometry x="-740" y="480" width="40" height="20" as="geometry" />
        </mxCell>
        <mxCell id="s9uEeOPg26SiI027MZls-108" style="edgeStyle=orthogonalEdgeStyle;rounded=0;orthogonalLoop=1;jettySize=auto;html=1;exitX=0;exitY=0.5;exitDx=0;exitDy=0;" edge="1" parent="1" source="s9uEeOPg26SiI027MZls-106" target="s9uEeOPg26SiI027MZls-109">
          <mxGeometry relative="1" as="geometry">
            <mxPoint x="-800" y="679.9411764705883" as="targetPoint" />
          </mxGeometry>
        </mxCell>
        <mxCell id="s9uEeOPg26SiI027MZls-112" style="edgeStyle=orthogonalEdgeStyle;rounded=0;orthogonalLoop=1;jettySize=auto;html=1;exitX=0.5;exitY=1;exitDx=0;exitDy=0;entryX=0.5;entryY=0;entryDx=0;entryDy=0;" edge="1" parent="1" source="s9uEeOPg26SiI027MZls-106" target="s9uEeOPg26SiI027MZls-110">
          <mxGeometry relative="1" as="geometry">
            <Array as="points">
              <mxPoint x="-710" y="710" />
            </Array>
          </mxGeometry>
        </mxCell>
        <mxCell id="s9uEeOPg26SiI027MZls-113" style="edgeStyle=orthogonalEdgeStyle;rounded=0;orthogonalLoop=1;jettySize=auto;html=1;exitX=0.75;exitY=1;exitDx=0;exitDy=0;entryX=0.5;entryY=0;entryDx=0;entryDy=0;" edge="1" parent="1" source="s9uEeOPg26SiI027MZls-106" target="s9uEeOPg26SiI027MZls-111">
          <mxGeometry relative="1" as="geometry" />
        </mxCell>
        <mxCell id="s9uEeOPg26SiI027MZls-106" value="Show Shifts" style="rounded=1;whiteSpace=wrap;html=1;fillColor=#FFFFFF;" vertex="1" parent="1">
          <mxGeometry x="-842.5" y="650" width="120" height="60" as="geometry" />
        </mxCell>
        <mxCell id="s9uEeOPg26SiI027MZls-117" style="edgeStyle=orthogonalEdgeStyle;rounded=0;orthogonalLoop=1;jettySize=auto;html=1;exitX=1;exitY=0.25;exitDx=0;exitDy=0;entryX=0;entryY=0.25;entryDx=0;entryDy=0;" edge="1" parent="1" source="s9uEeOPg26SiI027MZls-109" target="s9uEeOPg26SiI027MZls-106">
          <mxGeometry relative="1" as="geometry" />
        </mxCell>
        <mxCell id="s9uEeOPg26SiI027MZls-109" value="Show 3 next shifts" style="rounded=1;whiteSpace=wrap;html=1;fillColor=#FFFFFF;" vertex="1" parent="1">
          <mxGeometry x="-1020" y="650.0011764705882" width="120" height="60" as="geometry" />
        </mxCell>
        <mxCell id="s9uEeOPg26SiI027MZls-119" style="edgeStyle=orthogonalEdgeStyle;rounded=0;orthogonalLoop=1;jettySize=auto;html=1;exitX=0.5;exitY=1;exitDx=0;exitDy=0;entryX=0.5;entryY=0;entryDx=0;entryDy=0;" edge="1" parent="1" source="s9uEeOPg26SiI027MZls-110" target="s9uEeOPg26SiI027MZls-118">
          <mxGeometry relative="1" as="geometry" />
        </mxCell>
        <mxCell id="s9uEeOPg26SiI027MZls-110" value="Log Out" style="rounded=1;whiteSpace=wrap;html=1;fillColor=#FFFFFF;" vertex="1" parent="1">
          <mxGeometry x="-770" y="780" width="120" height="60" as="geometry" />
        </mxCell>
        <mxCell id="s9uEeOPg26SiI027MZls-111" value="Go back" style="rounded=1;whiteSpace=wrap;html=1;fillColor=#FFFFFF;" vertex="1" parent="1">
          <mxGeometry x="-630" y="760" width="120" height="60" as="geometry" />
        </mxCell>
        <mxCell id="s9uEeOPg26SiI027MZls-121" style="edgeStyle=orthogonalEdgeStyle;rounded=0;orthogonalLoop=1;jettySize=auto;html=1;exitX=0.5;exitY=1;exitDx=0;exitDy=0;entryX=0.5;entryY=0;entryDx=0;entryDy=0;entryPerimeter=0;" edge="1" parent="1" source="s9uEeOPg26SiI027MZls-118" target="s9uEeOPg26SiI027MZls-120">
          <mxGeometry relative="1" as="geometry" />
        </mxCell>
        <mxCell id="s9uEeOPg26SiI027MZls-118" value="" style="ellipse;html=1;shape=endState;fillColor=#000000;strokeColor=#ff0000;" vertex="1" parent="1">
          <mxGeometry x="-725" y="880" width="30" height="30" as="geometry" />
        </mxCell>
        <mxCell id="s9uEeOPg26SiI027MZls-120" value="&lt;div&gt;Goes back to&lt;/div&gt;&lt;div&gt;Volunteer&lt;/div&gt;&lt;div&gt;Login&lt;br&gt;&lt;/div&gt;" style="shape=note;whiteSpace=wrap;html=1;backgroundOutline=1;darkOpacity=0.05;" vertex="1" parent="1">
          <mxGeometry x="-750" y="950" width="80" height="100" as="geometry" />
        </mxCell>
        <mxCell id="s9uEeOPg26SiI027MZls-124" style="edgeStyle=orthogonalEdgeStyle;rounded=0;orthogonalLoop=1;jettySize=auto;html=1;exitX=0.5;exitY=1;exitDx=0;exitDy=0;entryX=0.75;entryY=0;entryDx=0;entryDy=0;" edge="1" parent="1" source="s9uEeOPg26SiI027MZls-122" target="s9uEeOPg26SiI027MZls-111">
          <mxGeometry relative="1" as="geometry" />
        </mxCell>
        <mxCell id="s9uEeOPg26SiI027MZls-125" style="edgeStyle=orthogonalEdgeStyle;rounded=0;orthogonalLoop=1;jettySize=auto;html=1;exitX=0;exitY=0.5;exitDx=0;exitDy=0;entryX=0.75;entryY=0;entryDx=0;entryDy=0;" edge="1" parent="1" source="s9uEeOPg26SiI027MZls-122" target="s9uEeOPg26SiI027MZls-110">
          <mxGeometry relative="1" as="geometry">
            <Array as="points">
              <mxPoint x="-600" y="700" />
              <mxPoint x="-630" y="700" />
              <mxPoint x="-630" y="750" />
              <mxPoint x="-680" y="750" />
            </Array>
          </mxGeometry>
        </mxCell>
        <mxCell id="s9uEeOPg26SiI027MZls-122" value="Show Volunteer Information" style="rounded=1;whiteSpace=wrap;html=1;fillColor=#FFFFFF;" vertex="1" parent="1">
          <mxGeometry x="-600" y="660" width="120" height="60" as="geometry" />
        </mxCell>
        <mxCell id="s9uEeOPg26SiI027MZls-127" style="edgeStyle=orthogonalEdgeStyle;rounded=0;orthogonalLoop=1;jettySize=auto;html=1;exitX=0.5;exitY=1;exitDx=0;exitDy=0;entryX=1;entryY=0.5;entryDx=0;entryDy=0;" edge="1" parent="1" source="s9uEeOPg26SiI027MZls-126" target="s9uEeOPg26SiI027MZls-111">
          <mxGeometry relative="1" as="geometry" />
        </mxCell>
        <mxCell id="s9uEeOPg26SiI027MZls-128" style="edgeStyle=orthogonalEdgeStyle;rounded=0;orthogonalLoop=1;jettySize=auto;html=1;exitX=0.25;exitY=1;exitDx=0;exitDy=0;entryX=0.75;entryY=1;entryDx=0;entryDy=0;" edge="1" parent="1" source="s9uEeOPg26SiI027MZls-126" target="s9uEeOPg26SiI027MZls-110">
          <mxGeometry relative="1" as="geometry" />
        </mxCell>
        <mxCell id="s9uEeOPg26SiI027MZls-129" style="edgeStyle=orthogonalEdgeStyle;rounded=0;orthogonalLoop=1;jettySize=auto;html=1;exitX=0.5;exitY=0;exitDx=0;exitDy=0;entryX=1;entryY=0.5;entryDx=0;entryDy=0;" edge="1" parent="1" source="s9uEeOPg26SiI027MZls-126" target="s9uEeOPg26SiI027MZls-101">
          <mxGeometry relative="1" as="geometry" />
        </mxCell>
        <mxCell id="s9uEeOPg26SiI027MZls-131" style="edgeStyle=orthogonalEdgeStyle;rounded=0;orthogonalLoop=1;jettySize=auto;html=1;exitX=0.75;exitY=1;exitDx=0;exitDy=0;entryX=0.5;entryY=0;entryDx=0;entryDy=0;" edge="1" parent="1" source="s9uEeOPg26SiI027MZls-126" target="s9uEeOPg26SiI027MZls-130">
          <mxGeometry relative="1" as="geometry" />
        </mxCell>
        <mxCell id="s9uEeOPg26SiI027MZls-126" value="Responsibles contact info" style="rounded=1;whiteSpace=wrap;html=1;fillColor=#FFFFFF;" vertex="1" parent="1">
          <mxGeometry x="-465" y="660" width="120" height="60" as="geometry" />
        </mxCell>
        <mxCell id="s9uEeOPg26SiI027MZls-133" style="edgeStyle=orthogonalEdgeStyle;rounded=0;orthogonalLoop=1;jettySize=auto;html=1;exitX=0;exitY=0.5;exitDx=0;exitDy=0;entryX=0.5;entryY=0;entryDx=0;entryDy=0;" edge="1" parent="1" source="s9uEeOPg26SiI027MZls-130" target="s9uEeOPg26SiI027MZls-132">
          <mxGeometry relative="1" as="geometry" />
        </mxCell>
        <mxCell id="s9uEeOPg26SiI027MZls-130" value="Search" style="rounded=1;whiteSpace=wrap;html=1;" vertex="1" parent="1">
          <mxGeometry x="-460" y="875" width="120" height="60" as="geometry" />
        </mxCell>
        <mxCell id="s9uEeOPg26SiI027MZls-143" style="edgeStyle=orthogonalEdgeStyle;rounded=0;orthogonalLoop=1;jettySize=auto;html=1;exitX=0.5;exitY=1;exitDx=0;exitDy=0;entryX=0.5;entryY=0;entryDx=0;entryDy=0;" edge="1" parent="1" source="s9uEeOPg26SiI027MZls-132" target="s9uEeOPg26SiI027MZls-142">
          <mxGeometry relative="1" as="geometry" />
        </mxCell>
        <mxCell id="s9uEeOPg26SiI027MZls-132" value="Correct responsible name" style="rhombus;whiteSpace=wrap;html=1;" vertex="1" parent="1">
          <mxGeometry x="-610" y="950" width="130" height="100" as="geometry" />
        </mxCell>
        <mxCell id="s9uEeOPg26SiI027MZls-134" value="Person not found" style="rounded=1;whiteSpace=wrap;html=1;" vertex="1" parent="1">
          <mxGeometry x="-450" y="970" width="120" height="60" as="geometry" />
        </mxCell>
        <mxCell id="s9uEeOPg26SiI027MZls-135" style="edgeStyle=orthogonalEdgeStyle;rounded=0;orthogonalLoop=1;jettySize=auto;html=1;exitX=1;exitY=0.5;exitDx=0;exitDy=0;entryX=0;entryY=0.5;entryDx=0;entryDy=0;" edge="1" parent="1" source="s9uEeOPg26SiI027MZls-132" target="s9uEeOPg26SiI027MZls-134">
          <mxGeometry relative="1" as="geometry">
            <mxPoint x="-440.00000000000045" y="1020" as="sourcePoint" />
            <mxPoint x="-360.00000000000045" y="1020" as="targetPoint" />
            <Array as="points">
              <mxPoint x="-450" y="1000" />
              <mxPoint x="-450" y="1000" />
            </Array>
          </mxGeometry>
        </mxCell>
        <mxCell id="s9uEeOPg26SiI027MZls-137" value="NO" style="text;html=1;align=center;verticalAlign=middle;resizable=0;points=[];autosize=1;strokeColor=none;fillColor=none;" vertex="1" parent="1">
          <mxGeometry x="-480" y="980" width="30" height="20" as="geometry" />
        </mxCell>
        <mxCell id="s9uEeOPg26SiI027MZls-142" value="Information available" style="rounded=1;whiteSpace=wrap;html=1;" vertex="1" parent="1">
          <mxGeometry x="-605" y="1140" width="120" height="60" as="geometry" />
        </mxCell>
        <mxCell id="s9uEeOPg26SiI027MZls-144" value="YES" style="text;html=1;align=center;verticalAlign=middle;resizable=0;points=[];autosize=1;strokeColor=none;fillColor=none;rotation=270;" vertex="1" parent="1">
          <mxGeometry x="-575" y="1080" width="40" height="20" as="geometry" />
        </mxCell>
      </root>
    </mxGraphModel>
  </diagram>
</mxfile>
